<svg width="222" height="56" viewBox="0 0 222 56" fill="none" xmlns="http://www.w3.org/2000/svg">
<g clip-path="url(#clip0_2517_4988)">
<path d="M93.8535 18H74.2383C73.0383 18 72.0376 19 72.0376 20.1992V39.8008C72.0376 41 73.0383 42 74.2383 42H84.0459V32H81.0438V29H84.0459V26C84.0459 23.5 85.0466 22 88.0487 22H91.0507V25H89.7491C88.85 25 88.0487 25.8008 88.0487 26.6992V29H92.0514L91.5511 32H88.0487V42H93.8535C95.0535 42 96.0542 41 96.0542 39.8008V20.1992C96.0542 19 95.0535 18 93.8535 18Z" fill="#3D3D3C"/>
<path d="M131.746 18C128.067 18 125.074 20.9907 125.074 24.6667V35.3333C125.074 39.0093 128.067 42 131.746 42H142.42C146.098 42 149.091 39.0093 149.091 35.3333V24.6667C149.091 20.9907 146.098 18 142.42 18H131.746ZM131.746 20.6667H142.42C144.627 20.6667 146.423 22.4613 146.423 24.6667V35.3333C146.423 37.5387 144.627 39.3333 142.42 39.3333H131.746C129.539 39.3333 127.743 37.5387 127.743 35.3333V24.6667C127.743 22.4613 129.539 20.6667 131.746 20.6667ZM143.754 22C143.4 22 143.061 22.1405 142.811 22.3905C142.56 22.6406 142.42 22.9797 142.42 23.3333C142.42 23.687 142.56 24.0261 142.811 24.2761C143.061 24.5262 143.4 24.6667 143.754 24.6667C144.108 24.6667 144.447 24.5262 144.697 24.2761C144.948 24.0261 145.088 23.687 145.088 23.3333C145.088 22.9797 144.948 22.6406 144.697 22.3905C144.447 22.1405 144.108 22 143.754 22ZM137.083 23.3333C133.404 23.3333 130.411 26.324 130.411 30C130.411 33.676 133.404 36.6667 137.083 36.6667C140.761 36.6667 143.754 33.676 143.754 30C143.754 26.324 140.761 23.3333 137.083 23.3333ZM137.083 26C139.29 26 141.085 27.7947 141.085 30C141.085 32.2053 139.29 34 137.083 34C134.876 34 133.08 32.2053 133.08 30C133.08 27.7947 134.876 26 137.083 26Z" fill="#3D3D3C"/>
<path d="M205.998 21.7342C205.633 20.3488 204.539 19.255 203.152 18.8722C200.653 18.1978 190.62 18.1978 190.62 18.1978C190.62 18.1978 180.587 18.1978 178.07 18.8722C176.683 19.2368 175.607 20.3306 175.224 21.7342C174.567 24.2498 174.567 29.4998 174.567 29.4998C174.567 29.4998 174.567 34.7498 175.242 37.2655C175.607 38.6509 176.702 39.7446 178.088 40.1274C180.587 40.8019 190.62 40.8019 190.62 40.8019C190.62 40.8019 200.653 40.8019 203.17 40.1274C204.557 39.7629 205.633 38.6691 206.016 37.2655C206.673 34.7498 206.673 29.4998 206.673 29.4998C206.673 29.4998 206.673 24.2498 205.998 21.7342ZM187.337 34.2759V24.7238L195.728 29.4998L187.337 34.2759Z" fill="#3D3D3C"/>
<path d="M18 29.5002C18 35.4378 21.5729 40.5386 26.6855 42.7812C26.6447 41.7687 26.6783 40.5532 26.9381 39.4515C27.2171 38.2744 28.8051 31.5504 28.8051 31.5504C28.8051 31.5504 28.3416 30.6245 28.3416 29.2562C28.3416 27.1074 29.5879 25.5025 31.14 25.5025C32.4599 25.5025 33.0975 26.4932 33.0975 27.6795C33.0975 29.0053 32.2513 30.9885 31.8161 32.8254C31.4525 34.3635 32.5878 35.6181 34.1063 35.6181C36.8555 35.6181 38.7071 32.0895 38.7071 27.9087C38.7071 24.7307 36.5652 22.3521 32.6693 22.3521C28.2678 22.3521 25.5257 25.6322 25.5257 29.2962C25.5257 30.5595 25.8985 31.4504 26.4823 32.1402C26.7507 32.4571 26.788 32.5845 26.6909 32.9484C26.6213 33.2152 26.4614 33.8575 26.3952 34.112C26.2986 34.4793 26.0008 34.6106 25.6687 34.475C23.6414 33.6479 22.6972 31.4293 22.6972 28.9353C22.6972 24.8163 26.1735 19.8772 33.0676 19.8772C38.6075 19.8772 42.2537 23.8833 42.2537 28.1836C42.2537 33.8718 39.0891 38.1213 34.4244 38.1213C32.8579 38.1213 31.3843 37.2751 30.8795 36.3139C30.8795 36.3139 30.0371 39.6548 29.8587 40.2999C29.551 41.4179 28.9489 42.5353 28.3983 43.4062C29.7033 43.7911 31.0819 44.0008 32.5106 44.0008C40.5234 44.0008 47.0203 37.5088 47.0203 29.5002C47.0203 21.492 40.5234 15 32.5106 15C24.4971 15 18 21.492 18 29.5002Z" fill="#3D3D3C"/>
</g>
<defs>
<clipPath id="clip0_2517_4988">
<rect width="222" height="56" fill="white"/>
</clipPath>
</defs>
</svg>
