<svg width="222" height="52" viewBox="0 0 222 52" fill="none" xmlns="http://www.w3.org/2000/svg">
<g clip-path="url(#clip0_2517_4988)">
<path d="M93.8535 14H74.2383C73.0383 14 72.0376 15 72.0376 16.1992V35.8008C72.0376 37 73.0383 38 74.2383 38H84.0459V28H81.0438V25H84.0459V22C84.0459 19.5 85.0466 18 88.0487 18H91.0507V21H89.7491C88.85 21 88.0487 21.8008 88.0487 22.6992V25H92.0514L91.5511 28H88.0487V38H93.8535C95.0535 38 96.0542 37 96.0542 35.8008V16.1992C96.0542 15 95.0535 14 93.8535 14Z" fill="#315FD0"/>
<path d="M131.746 14C128.067 14 125.074 16.9907 125.074 20.6667V31.3333C125.074 35.0093 128.067 38 131.746 38H142.42C146.098 38 149.091 35.0093 149.091 31.3333V20.6667C149.091 16.9907 146.098 14 142.42 14H131.746ZM131.746 16.6667H142.42C144.627 16.6667 146.423 18.4613 146.423 20.6667V31.3333C146.423 33.5387 144.627 35.3333 142.42 35.3333H131.746C129.539 35.3333 127.743 33.5387 127.743 31.3333V20.6667C127.743 18.4613 129.539 16.6667 131.746 16.6667ZM143.754 18C143.4 18 143.061 18.1405 142.811 18.3905C142.56 18.6406 142.42 18.9797 142.42 19.3333C142.42 19.687 142.56 20.0261 142.811 20.2761C143.061 20.5262 143.4 20.6667 143.754 20.6667C144.108 20.6667 144.447 20.5262 144.697 20.2761C144.948 20.0261 145.088 19.687 145.088 19.3333C145.088 18.9797 144.948 18.6406 144.697 18.3905C144.447 18.1405 144.108 18 143.754 18ZM137.083 19.3333C133.404 19.3333 130.411 22.324 130.411 26C130.411 29.676 133.404 32.6667 137.083 32.6667C140.761 32.6667 143.754 29.676 143.754 26C143.754 22.324 140.761 19.3333 137.083 19.3333ZM137.083 22C139.29 22 141.085 23.7947 141.085 26C141.085 28.2053 139.29 30 137.083 30C134.876 30 133.08 28.2053 133.08 26C133.08 23.7947 134.876 22 137.083 22Z" fill="url(#paint0_angular_2517_4988)"/>
<path d="M205.998 17.7342C205.633 16.3488 204.539 15.255 203.152 14.8722C200.653 14.1978 190.62 14.1978 190.62 14.1978C190.62 14.1978 180.587 14.1978 178.07 14.8722C176.683 15.2368 175.607 16.3306 175.224 17.7342C174.567 20.2498 174.567 25.4998 174.567 25.4998C174.567 25.4998 174.567 30.7498 175.242 33.2655C175.607 34.6509 176.702 35.7446 178.088 36.1274C180.587 36.8019 190.62 36.8019 190.62 36.8019C190.62 36.8019 200.653 36.8019 203.17 36.1274C204.557 35.7629 205.633 34.6691 206.016 33.2655C206.673 30.7498 206.673 25.4998 206.673 25.4998C206.673 25.4998 206.673 20.2498 205.998 17.7342ZM187.337 30.2759V20.7238L195.728 25.4998L187.337 30.2759Z" fill="#E12F2F"/>
<path d="M18 25.5002C18 31.4378 21.5729 36.5386 26.6855 38.7812C26.6447 37.7687 26.6783 36.5532 26.9381 35.4515C27.2171 34.2744 28.8051 27.5504 28.8051 27.5504C28.8051 27.5504 28.3416 26.6245 28.3416 25.2562C28.3416 23.1074 29.5879 21.5025 31.14 21.5025C32.4599 21.5025 33.0975 22.4932 33.0975 23.6795C33.0975 25.0053 32.2513 26.9885 31.8161 28.8254C31.4525 30.3635 32.5878 31.6181 34.1063 31.6181C36.8555 31.6181 38.7071 28.0895 38.7071 23.9087C38.7071 20.7307 36.5652 18.3521 32.6693 18.3521C28.2678 18.3521 25.5257 21.6322 25.5257 25.2962C25.5257 26.5595 25.8985 27.4504 26.4823 28.1402C26.7507 28.4571 26.788 28.5845 26.6909 28.9484C26.6213 29.2152 26.4614 29.8575 26.3952 30.112C26.2986 30.4793 26.0008 30.6106 25.6687 30.475C23.6414 29.6479 22.6972 27.4293 22.6972 24.9353C22.6972 20.8163 26.1735 15.8772 33.0676 15.8772C38.6075 15.8772 42.2537 19.8833 42.2537 24.1836C42.2537 29.8718 39.0891 34.1213 34.4244 34.1213C32.8579 34.1213 31.3843 33.2751 30.8795 32.3139C30.8795 32.3139 30.0371 35.6548 29.8587 36.2999C29.551 37.4179 28.9489 38.5353 28.3983 39.4062C29.7033 39.7911 31.0819 40.0008 32.5106 40.0008C40.5234 40.0008 47.0203 33.5088 47.0203 25.5002C47.0203 17.492 40.5234 11 32.5106 11C24.4971 11 18 17.492 18 25.5002Z" fill="#CA243D"/>
</g>
<defs>
<radialGradient id="paint0_angular_2517_4988" cx="0" cy="0" r="1" gradientUnits="userSpaceOnUse" gradientTransform="translate(137.083 26) rotate(90) scale(12 12.3723)">
<stop stop-color="#D98E4F"/>
<stop offset="0.223937" stop-color="#F14D5D"/>
<stop offset="0.50287" stop-color="#6137B5"/>
<stop offset="0.815374" stop-color="#D33D98"/>
<stop offset="0.9999" stop-color="#D98E4F"/>
</radialGradient>
<clipPath id="clip0_2517_4988">
<rect width="222" height="52" fill="white"/>
</clipPath>
</defs>
</svg>
