<svg width="30" height="29" viewBox="0 0 30 29" fill="none" xmlns="http://www.w3.org/2000/svg">
<path d="M0 14.5002C0 20.4378 3.57288 25.5386 8.68553 27.7812C8.64472 26.7687 8.67827 25.5532 8.93809 24.4515C9.21707 23.2744 10.8051 16.5504 10.8051 16.5504C10.8051 16.5504 10.3416 15.6245 10.3416 14.2562C10.3416 12.1074 11.5879 10.5025 13.14 10.5025C14.4599 10.5025 15.0975 11.4932 15.0975 12.6795C15.0975 14.0053 14.2513 15.9885 13.8161 17.8254C13.4525 19.3635 14.5878 20.6181 16.1063 20.6181C18.8555 20.6181 20.7071 17.0895 20.7071 12.9087C20.7071 9.73075 18.5652 7.35207 14.6693 7.35207C10.2678 7.35207 7.52574 10.6322 7.52574 14.2962C7.52574 15.5595 7.89847 16.4504 8.48227 17.1402C8.75071 17.4571 8.788 17.5845 8.69085 17.9484C8.62125 18.2152 8.46141 18.8575 8.39521 19.112C8.29863 19.4793 8.00083 19.6106 7.66869 19.475C5.64136 18.6479 4.69718 16.4293 4.69718 13.9353C4.69718 9.81627 8.17348 4.87721 15.0676 4.87721C20.6075 4.87721 24.2537 8.88329 24.2537 13.1836C24.2537 18.8718 21.0891 23.1213 16.4244 23.1213C14.8579 23.1213 13.3843 22.2751 12.8795 21.3139C12.8795 21.3139 12.0371 24.6548 11.8587 25.2999C11.551 26.4179 10.9489 27.5353 10.3983 28.4062C11.7033 28.7911 13.0819 29.0008 14.5106 29.0008C22.5234 29.0008 29.0203 22.5088 29.0203 14.5002C29.0203 6.49204 22.5234 0 14.5106 0C6.49711 0 0 6.49204 0 14.5002Z" fill="#CA243D"/>
</svg>
